PathFileType	4	(X/Y/Z)	S01_0003_Gait_markers.trc
DataRate	CameraRate	NumFrames	NumMarkers	Units	OrigDataRate	OrigDataStartFrame	OrigNumFrames
250.000000	250.000000	4	54	mm	250.000000	157	314
Frame#	Time	HEAD_ANT			R_HEAD			L_HEAD			C7			R_BACK			L_BACK			STERNUM			R_ACROMION			R_HUM_PROX			R_HUM_ANT			R_HUM_POST			R_ELBOW_LAT			R_ELBOW_MED			R_FOREARM			R_WIRST_LAT			R_WRITS_MED			R_HAND			L_ACROMION			L_HUM_PROX			L_HUM_ANT			L_HUM_POST			L_ELBOW_LAT			L_ELBOW_MED			L_FOREARM			L_WRIST_LAT			L_WIRST_MED			L_HAND			R_ILIAC			SACRUM			L_ILIAC			R_GTROCH			R_THIGH__1			R_THIGH_2			R_THIGH_3			R_THIGH_4			R_SHANK_1			R_SHANK_2			R_SHANK_3			R_SHANK_4			R_HEEL			R_FOOT_LAT			R_FOOT_MED			L_GTROCH			L_THIGH_1			L_THIGH_2			L_THIGH_3			L_THIGH_4			L_SHANK_1			L_SHANK_2			L_SHANK_3			L_SHANK_4			L_HEEL			L_FOOT_LAT			L_FOOT_MED			
		X1	Y1	Z1	X2	Y2	Z2	X3	Y3	Z3	X4	Y4	Z4	X5	Y5	Z5	X6	Y6	Z6	X7	Y7	Z7	X8	Y8	Z8	X9	Y9	Z9	X10	Y10	Z10	X11	Y11	Z11	X12	Y12	Z12	X13	Y13	Z13	X14	Y14	Z14	X15	Y15	Z15	X16	Y16	Z16	X17	Y17	Z17	X18	Y18	Z18	X19	Y19	Z19	X20	Y20	Z20	X21	Y21	Z21	X22	Y22	Z22	X23	Y23	Z23	X24	Y24	Z24	X25	Y25	Z25	X26	Y26	Z26	X27	Y27	Z27	X28	Y28	Z28	X29	Y29	Z29	X30	Y30	Z30	X31	Y31	Z31	X32	Y32	Z32	X33	Y33	Z33	X34	Y34	Z34	X35	Y35	Z35	X36	Y36	Z36	X37	Y37	Z37	X38	Y38	Z38	X39	Y39	Z39	X40	Y40	Z40	X41	Y41	Z41	X42	Y42	Z42	X43	Y43	Z43	X44	Y44	Z44	X45	Y45	Z45	X46	Y46	Z46	X47	Y47	Z47	X48	Y48	Z48	X49	Y49	Z49	X50	Y50	Z50	X51	Y51	Z51	X52	Y52	Z52	X53	Y53	Z53	X54	Y54	Z54	

158	0.628	1084.673583984375	325.2949523925781	1712.408325195312	1025.705932617188	246.5060577392578	1664.03271484375	1024.890625	393.9523010253906	1663.071533203125	884.4347534179688	313.8629455566406	1494.990844726562	815.3892211914062	237.120361328125	1300.901245117188	809.2086181640625	375.3685913085938	1298.503051757812	1061.793579101562	320.4680480957031	1331.396850585938	976.6224975585938	145.3795013427734	1445.1552734375	970.1124877929688	50.48927688598633	1285.903564453125	1041.372802734375	60.92614364624023	1208.0869140625	924.8402709960938	25.68070411682129	1196.465087890625	985.7894287109375	29.03318405151367	1095.588134765625	947.3335571289062	103.0727157592773	1085.743286132812	1120.390258789062	52.34245681762695	936.9483642578125	1163.746215820312	101.640007019043	880.9036254882812	1111.21923828125	50.30619430541992	843.8076171875	1197.433715820312	50.70180892944336	797.0869750976562	955.336669921875	487.0528869628906	1446.269775390625	912.6270751953125	575.2513427734375	1278.289916992188	967.45166015625	580.3362426757812	1192.804443359375	844.323486328125	591.3588256835938	1205.541748046875	890.0223999023438	601.8280639648438	1096.9296875	846.1600341796875	538.9139404296875	1097.1806640625	974.0744018554688	603.1206665039062	909.601318359375	1009.604919433594	558.309326171875	845.8580932617188	948.5714111328125	607.8467407226562	829.1983032226562	1019.301696777344	611.171875	766.9823608398438	956.8716430664062	135.9138946533203	1043.890258789062	831.5081176757812	309.0346984863281	1015.979370117188	951.1336669921875	481.4246520996094	1038.08447265625	894.4406127929688	125.1150741577148	910.2804565429688	856.2014770507812	140.3112335205078	643.2271118164062	914.8984985351562	135.098388671875	642.908935546875	890.57177734375	165.7783813476562	542.831787109375	830.1355590820312	159.5042724609375	566.4712524414062	704.531494140625	147.11474609375	381.4070434570312	736.1328735351562	163.9704742431641	333.3626403808594	682.468994140625	181.1550903320312	266.8169860839844	635.3834228515625	167.2115020751953	307.7196350097656	479.8680419921875	238.2244415283203	171.2471160888672	581.635986328125	178.8426818847656	30.37591934204102	629.5414428710938	280.3795776367188	28.10719299316406	936.694091796875	489.6215209960938	926.2949829101562	1108.734008789062	467.2122802734375	676.7688598632812	1051.565795898438	487.1434631347656	676.7884521484375	1071.248657226562	451.6369018554688	576.1262817382812	1128.877807617188	440.2157592773438	600.736328125	1171.294799804688	436.5599670410156	333.0321044921875	1120.683837890625	437.6604309082031	299.0472106933594	1137.83447265625	421.661865234375	215.0211334228516	1198.256225585938	415.0484924316406	235.7594299316406	1136.482788085938	348.4222717285156	36.77212524414062	1311.473022460938	421.3473815917969	23.78602027893066	1349.71337890625	325.8727111816406	43.21343994140625	
159	0.632	1090.404418945312	326.1876220703125	1712.808959960938	1031.426147460938	247.4781646728516	1664.452392578125	1030.697875976562	394.9267883300781	1663.591674804688	890.5086669921875	314.8434143066406	1495.376098632812	821.5228881835938	238.0359954833984	1300.881103515625	815.2745971679688	376.133056640625	1298.695190429688	1067.941772460938	321.0739135742188	1331.968139648438	982.5501708984375	146.0781707763672	1445.629272460938	975.3565063476562	51.30558013916016	1286.129272460938	1046.861938476562	61.12469863891602	1208.046020507812	929.9774169921875	27.04306030273438	1196.67236328125	990.9596557617188	30.12787818908691	1095.648681640625	952.7283325195312	104.3672714233398	1086.045288085938	1125.174682617188	52.86467361450195	936.6477661132812	1168.537963867188	101.906982421875	880.5325317382812	1115.681030273438	50.91265487670898	843.5697631835938	1201.691772460938	50.76951599121094	796.6707153320312	961.458251953125	487.6755065917969	1446.31982421875	918.69580078125	575.9509887695312	1278.113037109375	973.7620849609375	579.826904296875	1192.654541015625	850.4863891601562	591.7137451171875	1205.2626953125	896.5525512695312	601.9933471679688	1096.656005859375	852.5030517578125	539.2459106445312	1096.968383789062	979.83935546875	603.4597778320312	909.4561157226562	1015.487121582031	558.5227661132812	845.4627685546875	954.35546875	607.9744873046875	828.9218139648438	1025.174682617188	611.4400634765625	766.6146240234375	964.3651733398438	136.5623168945312	1043.653076171875	837.8991088867188	308.9841003417969	1016.408325195312	957.4698486328125	482.1078186035156	1038.471313476562	901.4407348632812	125.2860717773438	909.6727294921875	864.3862915039062	140.9545440673828	642.2595825195312	922.9061889648438	135.5897064208984	642.05029296875	899.2369995117188	166.0931549072266	541.974365234375	838.7376098632812	159.9040374755859	565.4486694335938	711.7120361328125	146.9589233398438	382.2280578613281	742.8374633789062	163.2077178955078	333.8472290039062	688.524169921875	180.4710235595703	267.7911987304688	642.0521850585938	166.3006591796875	309.7660522460938	484.5035705566406	236.6980133056641	175.6106719970703	582.8416748046875	178.8184509277344	31.18993186950684	629.6511840820312	280.3656311035156	28.15058517456055	943.3145751953125	490.1284790039062	927.598876953125	1115.774169921875	467.1592102050781	678.1047973632812	1058.442016601562	487.190185546875	678.2039184570312	1078.166381835938	452.191650390625	577.0541381835938	1135.955078125	440.4219970703125	602.1641845703125	1176.505615234375	436.5692749023438	332.9618225097656	1125.3212890625	438.5905151367188	299.5380554199219	1141.261352539062	422.3631896972656	214.9810180664062	1201.826782226562	415.1215209960938	235.4160461425781	1137.056884765625	348.8171997070312	37.1905403137207	1312.183959960938	422.4358520507812	22.99944305419922	1350.1806640625	324.77978515625	40.14103317260742	
160	0.636	1096.067138671875	327.0635986328125	1713.209350585938	1037.042724609375	248.5722045898438	1664.968383789062	1036.611206054688	395.8861083984375	1663.9423828125	896.572509765625	315.6129455566406	1495.96142578125	827.4903564453125	238.6704559326172	1300.955078125	821.2579956054688	376.8691101074219	1298.694702148438	1073.952270507812	322.0958862304688	1332.461791992188	988.5518798828125	146.7809600830078	1446.068359375	980.753662109375	52.17799758911133	1286.39599609375	1052.093872070312	61.61482620239258	1208.2119140625	935.0425415039062	28.3321704864502	1196.96142578125	996.0942993164062	31.08852386474609	1095.85986328125	958.2747192382812	105.4989547729492	1086.393310546875	1129.792846679688	53.45172500610352	936.3930053710938	1173.265625	102.2417602539062	880.2141723632812	1120.012329101562	51.35981750488281	843.33447265625	1205.898803710938	51.09307098388672	796.1731567382812	967.6253662109375	488.7266235351562	1446.421997070312	924.956298828125	576.5081787109375	1278.118041992188	980.1644897460938	581.3273315429688	1192.68603515625	856.7508544921875	592.138671875	1205.195556640625	906.1031494140625	601.1546020507812	1095.448852539062	858.9267578125	539.3416748046875	1096.880004882812	986.0154418945312	603.7105102539062	909.1964721679688	1021.53662109375	559.1322631835938	845.275146484375	960.4376220703125	608.4803466796875	828.833251953125	1031.127685546875	611.725830078125	766.4721069335938	970.4718017578125	136.8394622802734	1042.79296875	844.69140625	308.5345764160156	1016.658325195312	963.4345092773438	482.6095886230469	1039.211059570312	908.5450439453125	125.6853942871094	908.7391357421875	872.6315307617188	141.2003784179688	641.489990234375	931.2295532226562	135.9862518310547	641.5734252929688	907.9033203125	166.1874847412109	541.2225952148438	847.3444213867188	160.1247406005859	564.5250244140625	719.0433959960938	146.9110870361328	383.0531616210938	749.8416748046875	162.8201904296875	334.0944519042969	694.74267578125	179.7802581787109	268.7895812988281	648.7647094726562	165.7778930664062	311.3088989257812	490.2872314453125	236.1352691650391	179.5643310546875	584.0240478515625	178.8263549804688	31.90181732177734	629.8375854492188	280.3583068847656	28.21190452575684	949.54052734375	490.6036682128906	929.0291137695312	1122.6552734375	466.9374694824219	679.2489624023438	1065.349243164062	487.1918640136719	679.2320556640625	1085.291870117188	452.8942565917969	578.3290405273438	1142.90771484375	440.4693298339844	603.0882568359375	1181.17919921875	437.0702514648438	332.7326354980469	1129.682861328125	439.6568603515625	299.9685363769531	1144.538330078125	422.6595153808594	214.9744567871094	1205.302978515625	414.7095336914062	234.8173675537109	1137.62744140625	348.7703552246094	37.61977005004883	1312.3818359375	422.9964294433594	22.50808334350586	1350.514038085938	323.4182434082031	37.3076057434082	
161	0.64	1101.74853515625	328.21435546875	1713.61572265625	1042.751220703125	249.4543304443359	1665.523803710938	1042.275634765625	396.9889221191406	1664.450317382812	902.5728149414062	316.4974670410156	1496.3564453125	833.4699096679688	239.3949127197266	1301.129516601562	827.2572021484375	377.7920227050781	1298.903198242188	1079.915405273438	322.9754638671875	1333.023193359375	994.5477905273438	147.5060729980469	1446.619018554688	986.2504272460938	52.94718170166016	1286.686767578125	1057.198852539062	62.4301872253418	1208.610473632812	940.0933227539062	29.44504737854004	1197.367431640625	1001.100830078125	32.08218383789062	1096.27001953125	963.70166015625	106.8528060913086	1086.965698242188	1134.469360351562	53.85269546508789	936.2308959960938	1177.834106445312	102.6042861938477	879.9251708984375	1124.2412109375	51.90885162353516	843.2177734375	1209.9658203125	51.24473190307617	795.7592163085938	973.3125610351562	489.4851684570312	1446.5751953125	931.2474975585938	577.0823364257812	1278.217529296875	986.44677734375	580.7902221679688	1192.651611328125	863.0245361328125	592.724609375	1205.107421875	912.3638916015625	601.595703125	1095.637573242188	865.2617797851562	539.6573486328125	1096.911010742188	992.2691040039062	604.098388671875	908.9943237304688	1027.66552734375	559.14892578125	844.9447631835938	966.5068359375	608.7936401367188	828.85986328125	1036.9814453125	612.2289428710938	766.28271484375	977.5315551757812	137.3885955810547	1042.679809570312	851.1351928710938	308.5290222167969	1016.976928710938	969.1331176757812	483.4616394042969	1040.043701171875	915.6327514648438	125.9428863525391	908.2183837890625	880.90869140625	141.6905517578125	640.8002319335938	939.4147338867188	136.5553894042969	641.23095703125	916.6495361328125	166.3913116455078	540.5093383789062	856.000732421875	160.3370819091797	563.51904296875	726.6928100585938	146.5728912353516	384.1074523925781	756.95068359375	163.1753082275391	334.5582885742188	701.1548461914062	178.7683258056641	269.8555603027344	655.412353515625	164.888671875	312.7813720703125	496.536376953125	235.7295989990234	183.3988189697266	585.3530883789062	178.8501892089844	32.78793716430664	630.1351928710938	280.3217163085938	28.32665061950684	955.6935424804688	491.0281982421875	930.5435180664062	1129.749267578125	466.5657043457031	680.5255737304688	1072.117309570312	487.4260559082031	680.4484252929688	1092.409912109375	453.5359802246094	579.2332153320312	1149.848999023438	440.5160217285156	604.4209594726562	1185.71923828125	436.9410400390625	332.4002380371094	1134.11181640625	440.3447875976562	300.0702514648438	1147.615234375	423.4588317871094	215.1523284912109	1208.383422851562	414.46826171875	234.3439025878906	1138.125	348.57275390625	37.96001434326172	1312.659912109375	423.1566162109375	22.30042266845703	1351.109375	322.542236328125	35.87119293212891	
